<svg version="1.1" viewBox="0.0 0.0 509.34383202099735 585.1338582677165" fill="none" stroke="none" stroke-linecap="square" stroke-miterlimit="10" xmlns:xlink="http://www.w3.org/1999/xlink" xmlns="http://www.w3.org/2000/svg"><clipPath id="p.0"><path d="m0 0l509.34384 0l0 585.13385l-509.34384 0l0 -585.13385z" clip-rule="nonzero"/></clipPath><g clip-path="url(#p.0)"><path fill="#000000" fill-opacity="0.0" d="m0 0l509.34384 0l0 585.13385l-509.34384 0z" fill-rule="evenodd"/><path fill="#000000" d="m67.98649 524.9498c-27.863083 -25.82022 -46.808838 -71.331604 -53.496067 -112.56958c-6.687227 -41.237946 -1.3018379 -94.92081 13.372703 -134.85825c14.674541 -39.937454 44.581806 -78.0175 74.674545 -104.76642c30.092735 -26.748901 66.12992 -39.008743 105.88189 -55.727028c39.75197 -16.718285 99.565186 -30.465004 132.62991 -44.58268c33.06476 -14.117672 52.941376 -30.650043 65.758545 -40.12336c12.817139 -9.473316 5.943573 -18.01706 11.144348 -16.716536c5.200775 1.3005257 10.586609 7.0586166 20.060364 24.519686c9.473755 17.461067 27.67981 47.739285 36.782166 80.24672c9.102356 32.50744 16.90332 76.71786 17.832 114.797905c0.92871094 38.080048 1.671936 73.373566 -12.259827 113.6824c-13.931763 40.308838 -42.538513 95.29178 -71.33072 128.17062c-28.792206 32.878815 -63.527985 54.05597 -101.42258 69.102356c-37.89456 15.046387 -86.00699 24.70514 -125.94487 21.175842c-39.93788 -3.5292969 -85.819336 -16.531494 -113.68241 -42.351685z" fill-rule="evenodd"/></g></svg>