<svg version="1.1" viewBox="0.0 0.0 647.8267716535433 607.2467191601049" fill="none" stroke="none" stroke-linecap="square" stroke-miterlimit="10" xmlns:xlink="http://www.w3.org/1999/xlink" xmlns="http://www.w3.org/2000/svg"><clipPath id="p.0"><path d="m0 0l647.8268 0l0 607.2467l-647.8268 0l0 -607.2467z" clip-rule="nonzero"/></clipPath><g clip-path="url(#p.0)"><path fill="#000000" fill-opacity="0.0" d="m0 0l647.8268 0l0 607.2467l-647.8268 0z" fill-rule="evenodd"/><path fill="#5e4747" d="m300.7446 603.588l-10.910828 -83.17499l19.01831 -110.073456l-13.947754 -22.817535l-21.555115 -4.027008l-7.122162 -6.893463l-123.469406 -10.5589905l-38.03666 -75.16855l13.947777 -9.3984375l38.036667 72.48599l28.74614 0.91955566l-23.675583 -27.7641l1.2668915 -14.766724l-16.781067 -23.147339l7.906845 -5.041687l22.821991 22.82074l0 22.817535l27.892563 24.162018l58.32489 -4.027008l-68.466 -42.952545l-30.429337 -40.26999l-30.429337 -16.108017l-43.110214 -6.712723l-17.748451 -16.108002l-30.989399 -4.2172546l-31.139153 -46.792465l5.981042 -6.478073l40.43268 40.90416l27.853619 0l29.701546 27.323364l-59.591774 -69.80345l-2.5367737 -56.378l10.862911 3.732109l9.883541 51.368027l66.489296 70.393234l40.82202 23.50563l-15.214661 -36.242996l-30.429337 -30.871552l0 -53.69545l16.481552 0l0 51.00972l38.036667 38.928726l12.680893 53.69226l86.21445 49.665283l-51.981445 -61.746277l-0.47021484 -42.806686l11.88121 -2.8315887l6.337448 41.611267l51.984436 63.09073l12.677887 -20.13498l-24.088867 -114.100464l-46.910904 -42.952545l-6.340439 -48.324005l-39.30356 -26.847717l-11.4109955 -25.50328l11.929138 -2.844265l12.159744 22.979267l24.088898 13.422272l-0.30848694 -31.64524l-39.53418 -43.757954l8.146439 -7.8225265l46.91089 49.668446l5.0735474 85.90828l7.6073303 -60.405l12.228638 3.0440292l-5.8911743 53.33396l19.368744 29.425644l13.47757 -58.97811l-6.220642 -65.75425l-6.358429 -22.712915l10.782043 -4.756298l8.985046 40.904175l5.6096497 32.20649l11.411011 -25.50645l7.6073303 -34.898552l13.947784 2.6825523l-11.411011 46.982727l36.769775 -49.66528l7.0472717 -0.339283l-20.995026 37.92356l-15.214691 26.847725l-24.088867 10.736549l-10.1441345 76.513l4.8519287 16.352158l36.838654 -15.220154l22.462616 -40.904175l10.653259 2.1878967l-13.947784 34.90172l40.573456 -29.533447l-20.288239 -17.449272l-24.178741 -10.083351l-27.802704 -12.737373l11.411011 -10.736549l33.463287 17.766357l-3.5940247 -22.83023l-0.70980835 -21.783852l8.877197 -20.135002l13.396698 2.9171982l-7.0592346 27.957527l3.80365 37.584274l16.484558 6.712723l12.677887 -33.560448l56.755524 -32.03526l2.8362732 10.558987l-49.447662 32.215996l-15.214691 48.324005l48.177795 -22.820724l36.769775 -56.378l7.607361 -26.844555l13.947754 5.3682747l-8.877197 33.557274l-36.766815 52.351006l38.70456 1.671051l28.752136 -10.463867l-1.5274658 15.505539l-38.036682 9.395279l-53.251312 -2.6825562l-136.932 76.513l16.481567 63.08754l30.429321 -18.790527l50.71756 9.395264l-6.340454 -30.874725l8.874237 -24.162003l10.084198 -0.35830688l-3.5940247 21.878983l7.457611 40.22876l25.787048 -22.154816l-1.6981812 -31.540619l26.856293 -17.924911l6.109833 9.870911l-19.018341 13.425446l9.314484 17.607819l17.311188 -14.925262l5.0705566 -25.50328l9.964386 -1.4268799l-1.7969971 29.489044l-41.331177 37.09915l-15.274567 16.171417l39.564117 -0.7927246l45.793762 -30.598846l6.190674 11.805115l-45.643982 36.24301l-67.1991 -8.054016l-10.1441345 -13.422272l-24.088867 -1.3412781l17.751434 28.188995l44.96414 9.363586l-3.1238098 13.4539795l-51.984436 -5.368286l-19.018341 -37.58426l-16.481567 -12.081024l-23.906189 39.483643l1.084198 84.00891l16.391693 -2.9584045l34.322876 -27.913147l43.846985 6.0341797l34.763123 -3.3516235l43.10721 -24.161987l15.214661 5.3714294l14.735474 -41.592224l34.143127 -23.781494l8.176392 7.6512756l-25.358765 18.793732l-17.748413 33.55728l26.62561 -14.76355l22.822021 -30.874725l37.596436 -5.802704l1.7969971 11.415131l-32.34613 6.6588135l-29.869324 38.738464l-45.643982 21.476288l-12.680847 -5.368286l-35.49991 20.13501l55.788116 10.736542l22.82196 17.452454l-8.826294 6.2244263l-23.361084 -15.220154l-48.959473 -7.112274l-59.588806 -8.053986l-17.751434 2.6825562l-31.696228 36.24298" fill-rule="evenodd"/><path fill="#5e4747" d="m377.82425 438.19565l-28.401703 37.92038l12.680878 110.07025l-7.6073303 17.44928l-60.5412 -1.1383057" fill-rule="evenodd"/><path fill="#816161" d="m292.7445 603.588l-10.910858 -83.17499l19.018341 -110.073456l-13.947784 -22.817535l-21.555084 -4.027008l-7.122162 -6.893463l-123.469406 -10.5589905l-38.036667 -75.16855l13.947777 -9.3984375l38.036674 72.48599l28.746124 0.91955566l-23.675568 -27.7641l1.2668762 -14.766724l-16.781052 -23.147339l7.90683 -5.041687l22.822006 22.82074l0 22.817535l27.892563 24.162018l58.324875 -4.027008l-68.466 -42.952545l-30.429321 -40.26999l-30.429337 -16.108017l-43.11022 -6.712723l-17.748444 -16.108002l-30.989403 -4.2172546l-31.139153 -46.792465l5.9810414 -6.478073l40.43268 40.90416l27.853622 0l29.701546 27.323364l-59.591778 -69.80345l-2.5367775 -56.378l10.862915 3.732109l9.883545 51.368027l66.489296 70.393234l40.82202 23.50563l-15.214661 -36.242996l-30.429337 -30.871552l0 -53.69545l16.481552 0l0 51.00972l38.036667 38.928726l12.680893 53.69226l86.21445 49.665283l-51.981445 -61.746277l-0.4702301 -42.806686l11.881226 -2.8315887l6.337448 41.611267l51.984436 63.09073l12.677887 -20.13498l-24.088898 -114.100464l-46.910873 -42.952545l-6.340439 -48.324005l-39.30356 -26.847717l-11.411011 -25.50328l11.929138 -2.844265l12.1597595 22.979267l24.088882 13.422272l-0.30848694 -31.64524l-39.534164 -43.757954l8.146439 -7.8225265l46.91089 49.668446l5.0735474 85.90828l7.6073303 -60.405l12.228638 3.0440292l-5.8911743 53.33396l19.368744 29.425644l13.47757 -58.97811l-6.220642 -65.75425l-6.358429 -22.712915l10.782043 -4.756298l8.985046 40.904175l5.6096497 32.20649l11.411011 -25.50645l7.6073303 -34.898552l13.947784 2.6825523l-11.411011 46.982727l36.769775 -49.66528l7.0472717 -0.339283l-20.995056 37.92356l-15.214661 26.847725l-24.088898 10.736549l-10.144104 76.513l4.8519287 16.352158l36.838654 -15.220154l22.462616 -40.904175l10.653259 2.1878967l-13.947784 34.90172l40.573456 -29.533447l-20.288239 -17.449272l-24.178741 -10.083351l-27.802704 -12.737373l11.411011 -10.736549l33.463287 17.766357l-3.5940247 -22.83023l-0.70980835 -21.783852l8.877197 -20.135002l13.396698 2.9171982l-7.0592346 27.957527l3.80365 37.584274l16.484558 6.712723l12.677887 -33.560448l56.755493 -32.03526l2.8363037 10.558987l-49.447693 32.215996l-15.214661 48.324005l48.177795 -22.820724l36.769775 -56.378l7.6073303 -26.844555l13.947754 5.3682747l-8.877197 33.557274l-36.766785 52.351006l38.70453 1.671051l28.752136 -10.463867l-1.5274658 15.505539l-38.03665 9.395279l-53.251312 -2.6825562l-136.932 76.513l16.481567 63.08754l30.429321 -18.790527l50.71756 9.395264l-6.340454 -30.874725l8.874237 -24.162003l10.084198 -0.35830688l-3.5940247 21.878983l7.4575806 40.22876l25.787079 -22.154816l-1.6981812 -31.540619l26.856293 -17.924911l6.109833 9.870911l-19.018341 13.425446l9.314484 17.607819l17.311188 -14.925262l5.0705566 -25.50328l9.964386 -1.4268799l-1.7969971 29.489044l-41.331177 37.09915l-15.274567 16.171417l39.564117 -0.7927246l45.79373 -30.598846l6.190735 11.805115l-45.644012 36.24301l-67.19913 -8.054016l-10.144104 -13.422272l-24.088898 -1.3412781l17.751465 28.188995l44.96411 9.363586l-3.1237793 13.4539795l-51.984436 -5.368286l-19.018341 -37.58426l-16.481567 -12.081024l-23.906189 39.483643l1.084198 84.00891l16.391693 -2.9584045l34.322845 -27.913147l43.847015 6.0341797l34.763092 -3.3516235l43.10727 -24.161987l15.214661 5.3714294l14.735413 -41.592224l34.14319 -23.781494l8.176392 7.6512756l-25.358765 18.793732l-17.748474 33.55728l26.625671 -14.76355l22.822021 -30.874725l37.596375 -5.802704l1.7969971 11.415131l-32.34613 6.6588135l-29.869263 38.738464l-45.643982 21.476288l-12.680908 -5.368286l-35.499878 20.13501l55.788086 10.736542l22.822021 17.452454l-8.826294 6.2244263l-23.361145 -15.220154l-48.959473 -7.112274l-59.588776 -8.053986l-17.751434 2.6825562l-31.696228 36.24298" fill-rule="evenodd"/><path fill="#816161" d="m369.82416 438.19565l-28.401703 37.92038l12.680878 110.07025l-7.6073303 17.44928l-60.5412 -1.1383057" fill-rule="evenodd"/><path fill="#594646" d="m304.61154 456.0l0 0c0 -11.471863 8.087097 -20.771667 18.062988 -20.771667l0 0c4.790619 0 9.38501 2.188446 12.772461 6.083893c3.3874817 3.8954468 5.2905273 9.1788025 5.2905273 14.687775l0 0c0 11.471863 -8.087067 20.771667 -18.062988 20.771667l0 0c-9.975891 0 -18.062988 -9.299805 -18.062988 -20.771667z" fill-rule="evenodd"/><path fill="#403232" d="m310.22327 456.0l0 0c0 -11.471863 6.825012 -20.771667 15.24408 -20.771667l0 0c4.0429993 0 7.9203796 2.188446 10.779205 6.083893c2.8588257 3.8954468 4.464905 9.1788025 4.464905 14.687775l0 0c0 11.471863 -6.825012 20.771667 -15.24411 20.771667l0 0c-8.419067 0 -15.24408 -9.299805 -15.24408 -20.771667z" fill-rule="evenodd"/></g></svg>